{"glyphs":{"0":{"ha":814,"x_min":68,"x_max":746,"o":"m 407 760 q 339 636 339 760 l 339 326 q 407 190 339 190 q 475 326 475 190 l 475 636 q 407 760 475 760 m 746 636 l 746 326 q 407 -14 746 -14 q 68 326 68 -14 l 68 636 q 407 963 68 963 q 746 636 746 963 z "},"1":{"ha":644,"x_min":136,"x_max":509,"o":"m 136 610 l 136 814 q 237 949 203 814 l 509 949 l 509 0 l 237 0 l 237 678 q 136 610 204 610 z "},"2":{"ha":814,"x_min":68,"x_max":746,"o":"m 746 692 q 556 400 746 509 q 359 203 366 292 l 746 203 l 746 0 l 68 0 l 68 170 q 281 458 88 338 q 475 692 475 576 q 406 760 474 760 q 338 665 338 760 l 68 690 q 406 963 87 963 q 746 692 745 963 z "},"3":{"ha":848,"x_min":68,"x_max":780,"o":"m 766 692 q 634 476 766 531 q 780 258 780 422 q 420 -14 779 -14 q 68 258 85 -14 l 338 278 q 420 190 338 190 q 509 292 507 190 q 393 393 509 393 l 393 563 q 495 658 495 563 q 420 760 494 760 q 352 665 352 760 l 82 690 q 420 963 100 963 q 766 692 766 963 z "},"4":{"ha":848,"x_min":68,"x_max":780,"o":"m 441 0 l 441 203 l 68 203 l 68 407 l 237 949 l 712 949 l 712 407 l 780 407 l 780 203 l 712 203 l 712 0 l 441 0 m 441 407 l 441 780 l 326 407 l 441 407 z "},"5":{"ha":848,"x_min":68,"x_max":780,"o":"m 509 339 q 441 441 509 441 q 346 393 379 441 l 81 427 l 115 949 l 746 949 l 746 746 l 380 746 l 366 576 q 509 644 407 644 q 780 339 780 644 l 780 305 q 420 -14 779 -14 q 68 258 85 -14 l 338 278 q 420 190 338 190 q 509 305 507 190 l 509 339 z "},"6":{"ha":848,"x_min":68,"x_max":780,"o":"m 427 -14 q 68 326 68 -14 l 68 617 q 427 963 68 963 q 779 690 760 963 l 509 665 q 427 760 509 760 q 339 617 339 760 l 339 536 q 481 610 378 610 q 780 312 777 610 q 427 -14 776 -14 m 448 407 q 339 353 387 407 l 339 326 q 427 190 339 190 q 509 305 505 190 q 448 407 509 407 z "},"7":{"ha":848,"x_min":68,"x_max":780,"o":"m 780 949 l 780 746 l 529 -54 l 271 0 l 515 780 l 339 780 l 339 678 l 68 678 l 68 949 l 780 949 z "},"8":{"ha":848,"x_min":68,"x_max":780,"o":"m 81 678 q 420 949 81 949 q 766 678 766 949 q 663 477 766 532 q 780 271 780 422 q 420 0 780 0 q 68 271 68 0 q 182 477 68 422 q 81 678 81 533 m 509 292 q 420 387 509 387 q 339 292 339 387 q 420 203 339 203 q 509 292 509 203 m 495 658 q 420 753 495 753 q 353 658 353 753 q 420 563 353 563 q 495 658 495 563 z "},"9":{"ha":848,"x_min":68,"x_max":780,"o":"m 420 963 q 780 624 780 963 l 780 332 q 420 -14 780 -14 q 69 259 87 -14 l 339 285 q 420 190 339 190 q 509 332 509 190 l 509 414 q 366 339 470 339 q 68 637 71 339 q 420 963 72 963 m 400 543 q 509 597 460 543 l 509 624 q 420 760 509 760 q 339 644 342 760 q 400 543 339 543 z "}," ":{"ha":543,"x_min":0,"x_max":0,"o":""},"!":{"ha":543,"x_min":136,"x_max":407,"o":"m 407 949 l 407 678 l 393 271 l 149 271 l 136 678 l 136 949 l 407 949 m 407 203 l 407 0 l 136 0 l 136 203 l 407 203 z "},"\"":{"ha":918,"x_min":136,"x_max":780,"o":"m 407 949 l 407 814 l 393 678 l 149 678 l 136 814 l 136 949 l 407 949 m 780 949 l 780 814 l 766 678 l 522 678 l 509 814 l 509 949 l 780 949 z "},"#":{"ha":1153,"x_min":68,"x_max":1085,"o":"m 136 0 l 179 203 l 68 203 l 68 407 l 222 407 l 253 543 l 136 543 l 136 746 l 296 746 l 339 949 l 610 949 l 567 746 l 703 746 l 746 949 l 1017 949 l 974 746 l 1085 746 l 1085 543 l 931 543 l 900 407 l 1017 407 l 1017 203 l 857 203 l 814 0 l 543 0 l 586 203 l 450 203 l 407 0 l 136 0 m 493 407 l 629 407 l 660 543 l 524 543 l 493 407 z "},"$":{"ha":882,"x_min":68,"x_max":812,"o":"m 491 1085 l 491 960 q 804 695 793 937 l 534 678 q 491 755 534 734 l 491 566 q 812 271 812 495 q 491 -12 812 9 l 491 -136 l 389 -136 l 389 -12 q 68 258 77 11 l 338 271 q 389 193 338 214 l 389 392 q 382 394 386 393 q 375 397 378 395 q 73 678 73 454 q 389 961 73 940 l 389 1085 l 491 1085 m 541 264 q 491 356 541 350 l 491 193 q 541 264 541 211 m 345 685 q 389 602 345 607 l 389 755 q 345 685 345 738 z "},"%":{"ha":1289,"x_min":68,"x_max":1221,"o":"m 983 502 q 1221 278 1221 502 l 1221 217 q 983 0 1217 0 q 746 224 746 0 l 746 278 q 983 502 746 502 m 305 949 q 543 732 539 949 l 543 671 q 305 448 543 448 q 68 671 68 448 l 68 732 q 305 949 71 949 m 305 0 l 753 949 l 983 949 l 536 0 l 305 0 m 305 604 q 353 665 349 604 l 353 726 q 305 793 353 793 q 258 732 260 793 l 258 671 q 305 604 258 604 m 983 156 q 1031 218 1029 156 l 1031 278 q 983 346 1031 346 q 936 285 938 346 l 936 218 q 983 156 938 156 z "},"&":{"ha":1051,"x_min":68,"x_max":1004,"o":"m 407 0 q 68 271 68 0 q 259 524 68 450 q 183 712 183 627 q 502 949 183 949 q 814 712 814 949 q 638 451 814 543 l 693 391 l 787 509 l 1004 387 l 873 241 l 1004 119 l 794 -29 l 682 80 q 407 0 574 0 m 526 235 l 410 359 q 339 271 339 336 q 420 203 339 203 q 526 235 496 203 m 454 692 q 478 593 454 646 q 543 692 543 613 q 502 746 543 746 q 454 692 454 746 z "},"'":{"ha":543,"x_min":136,"x_max":407,"o":"m 407 949 l 407 814 l 393 678 l 149 678 l 136 814 l 136 949 l 407 949 z "},"(":{"ha":576,"x_min":68,"x_max":509,"o":"m 509 1085 q 339 475 339 882 q 509 -136 339 67 l 271 -136 q 68 475 68 68 q 271 1085 68 882 l 509 1085 z "},")":{"ha":576,"x_min":68,"x_max":509,"o":"m 305 1085 q 509 475 509 882 q 305 -136 509 68 l 68 -136 q 237 475 237 67 q 68 1085 237 882 l 305 1085 z "},"*":{"ha":543,"x_min":68,"x_max":475,"o":"m 326 813 l 454 841 l 475 732 l 359 719 l 434 610 l 339 549 l 271 671 l 203 549 l 109 610 l 190 719 l 68 732 l 88 841 l 220 814 l 214 949 l 332 949 l 326 813 z "},"+":{"ha":814,"x_min":68,"x_max":746,"o":"m 271 814 l 543 814 l 543 576 l 746 576 l 746 373 l 543 373 l 543 136 l 271 136 l 271 373 l 68 373 l 68 576 l 271 576 l 271 814 z "},",":{"ha":543,"x_min":136,"x_max":407,"o":"m 407 203 l 407 0 q 136 -170 407 -170 l 136 -68 q 203 0 203 -68 l 136 0 l 136 203 l 407 203 z "},"-":{"ha":543,"x_min":68,"x_max":475,"o":"m 475 576 l 475 373 l 68 373 l 68 576 l 475 576 z "},".":{"ha":543,"x_min":136,"x_max":407,"o":"m 407 203 l 407 0 l 136 0 l 136 203 l 407 203 z "},"/":{"ha":543,"x_min":0,"x_max":543,"o":"m 0 -136 l 312 1085 l 543 1085 l 231 -136 l 0 -136 z "},":":{"ha":543,"x_min":136,"x_max":407,"o":"m 407 203 l 407 0 l 136 0 l 136 203 l 407 203 m 407 678 l 407 475 l 136 475 l 136 678 l 407 678 z "},";":{"ha":543,"x_min":136,"x_max":407,"o":"m 407 203 l 407 0 q 136 -170 407 -170 l 136 -68 q 203 0 203 -68 l 136 0 l 136 203 l 407 203 m 407 678 l 407 475 l 136 475 l 136 678 l 407 678 z "},"<":{"ha":678,"x_min":68,"x_max":610,"o":"m 68 543 l 610 780 l 610 556 l 373 475 l 610 393 l 610 170 l 68 407 l 68 543 z "},"=":{"ha":678,"x_min":68,"x_max":610,"o":"m 610 746 l 610 543 l 68 543 l 68 746 l 610 746 m 610 407 l 610 203 l 68 203 l 68 407 l 610 407 z "},">":{"ha":678,"x_min":68,"x_max":610,"o":"m 610 407 l 68 170 l 68 393 l 305 475 l 68 556 l 68 780 l 610 543 l 610 407 z "},"?":{"ha":881,"x_min":68,"x_max":813,"o":"m 813 678 q 677 427 813 509 q 535 271 543 346 l 277 271 q 410 492 277 407 q 542 678 542 576 q 440 760 542 760 q 338 665 338 760 l 68 690 q 440 963 87 963 q 813 678 813 963 m 542 203 l 542 0 l 271 0 l 271 203 l 542 203 z "},"@":{"ha":1153,"x_min":68,"x_max":1085,"o":"m 1085 0 l 814 0 l 814 81 q 678 0 780 0 q 387 305 387 0 l 387 373 q 685 678 387 678 q 814 597 780 678 l 814 678 q 746 746 814 746 l 407 746 q 339 678 339 746 l 339 237 q 397 118 339 149 l 197 -8 q 68 237 68 50 l 68 678 q 407 949 68 949 l 746 949 q 1085 678 1085 949 l 1085 0 m 814 427 q 719 475 781 475 q 658 373 658 475 l 658 305 q 719 203 658 203 q 814 251 781 203 l 814 427 z "},"A":{"ha":814,"x_min":0,"x_max":814,"o":"m 617 949 l 814 0 l 543 0 l 508 203 l 305 203 l 271 0 l 0 0 l 197 949 l 617 949 m 349 407 l 465 407 l 407 699 l 349 407 z "},"B":{"ha":882,"x_min":68,"x_max":814,"o":"m 427 949 q 800 678 800 949 q 701 478 800 535 q 814 271 814 425 q 441 0 814 0 l 68 0 l 68 949 l 427 949 m 441 203 q 543 292 543 203 q 441 373 543 373 l 339 373 l 339 203 l 441 203 m 427 576 q 529 658 529 576 q 427 753 529 753 l 339 753 l 339 576 l 427 576 z "},"C":{"ha":881,"x_min":68,"x_max":813,"o":"m 441 -14 q 68 359 68 -14 l 68 583 q 441 963 68 963 q 812 690 794 963 l 543 665 q 441 760 543 760 q 339 583 339 760 l 339 359 q 441 190 339 190 q 543 278 543 190 l 813 258 q 441 -14 796 -14 z "},"D":{"ha":882,"x_min":68,"x_max":814,"o":"m 407 746 l 339 746 l 339 203 l 407 203 q 543 373 543 203 l 543 570 q 407 746 543 746 m 814 570 l 814 373 q 407 0 814 0 l 68 0 l 68 949 l 407 949 q 814 570 814 949 z "},"E":{"ha":814,"x_min":68,"x_max":746,"o":"m 746 949 l 746 746 l 339 746 l 339 576 l 712 576 l 712 373 l 339 373 l 339 203 l 746 203 l 746 0 l 68 0 l 68 949 l 746 949 z "},"F":{"ha":814,"x_min":68,"x_max":746,"o":"m 746 949 l 746 746 l 339 746 l 339 576 l 712 576 l 712 373 l 339 373 l 339 0 l 68 0 l 68 949 l 746 949 z "},"G":{"ha":882,"x_min":68,"x_max":814,"o":"m 441 190 q 543 231 509 190 l 543 373 l 441 373 l 441 576 l 814 576 l 814 122 q 441 -14 712 -14 q 68 359 68 -14 l 68 583 q 441 963 68 963 q 812 690 794 963 l 543 665 q 441 760 543 760 q 339 583 339 760 l 339 359 q 441 190 339 190 z "},"H":{"ha":882,"x_min":68,"x_max":814,"o":"m 339 949 l 339 576 l 543 576 l 543 949 l 814 949 l 814 0 l 543 0 l 543 373 l 339 373 l 339 0 l 68 0 l 68 949 l 339 949 z "},"I":{"ha":543,"x_min":136,"x_max":407,"o":"m 136 0 l 136 949 l 407 949 l 407 0 l 136 0 z "},"J":{"ha":814,"x_min":68,"x_max":747,"o":"m 68 258 l 338 278 q 406 190 338 190 q 475 292 474 190 l 475 949 l 747 949 l 747 292 q 406 -14 745 -14 q 68 258 84 -14 z "},"K":{"ha":882,"x_min":68,"x_max":814,"o":"m 339 949 l 339 597 l 522 949 l 814 949 l 587 553 l 814 0 l 522 0 l 400 302 l 339 197 l 339 0 l 68 0 l 68 949 l 339 949 z "},"L":{"ha":814,"x_min":68,"x_max":746,"o":"m 68 0 l 68 949 l 339 949 l 339 203 l 746 203 l 746 0 l 68 0 z "},"M":{"ha":1153,"x_min":68,"x_max":1085,"o":"m 441 949 l 576 461 l 712 949 l 1085 949 l 1085 0 l 814 0 l 814 492 l 705 136 l 448 136 l 339 492 l 339 0 l 68 0 l 68 949 l 441 949 z "},"N":{"ha":949,"x_min":68,"x_max":882,"o":"m 68 0 l 68 949 l 407 949 l 610 475 l 610 949 l 882 949 l 882 0 l 543 0 l 339 475 l 339 0 l 68 0 z "},"O":{"ha":882,"x_min":68,"x_max":814,"o":"m 441 760 q 339 583 339 760 l 339 359 q 441 190 339 190 q 543 359 543 190 l 543 583 q 441 760 543 760 m 814 583 l 814 359 q 441 -14 814 -14 q 68 359 68 -14 l 68 583 q 441 963 68 963 q 814 583 814 963 z "},"P":{"ha":882,"x_min":68,"x_max":814,"o":"m 407 949 q 814 644 814 949 q 407 339 814 339 l 339 339 l 339 0 l 68 0 l 68 949 l 407 949 m 407 543 q 543 644 543 543 q 407 746 543 746 l 339 746 l 339 543 l 407 543 z "},"Q":{"ha":882,"x_min":68,"x_max":814,"o":"m 814 359 q 694 68 814 126 q 814 20 756 20 l 780 -149 q 559 -81 644 -149 q 407 -14 475 -14 l 407 -12 q 68 359 68 7 l 68 583 q 441 963 68 963 q 814 583 814 963 l 814 359 m 441 760 q 339 583 339 760 l 339 359 q 441 190 339 190 q 543 359 543 190 l 543 583 q 441 760 543 760 z "},"R":{"ha":882,"x_min":68,"x_max":882,"o":"m 407 949 q 814 644 814 949 q 677 400 814 474 l 882 0 l 576 0 l 407 339 l 339 339 l 339 0 l 68 0 l 68 949 l 407 949 m 407 536 q 543 644 543 536 q 407 746 543 746 l 339 746 l 339 536 l 407 536 z "},"S":{"ha":880,"x_min":68,"x_max":812,"o":"m 73 685 q 444 961 73 953 q 804 661 793 951 l 534 644 q 444 755 534 754 q 345 685 345 751 q 578 548 345 608 q 812 264 812 488 q 437 -12 812 -4 q 68 292 77 -2 l 338 305 q 429 193 338 193 l 437 193 q 541 264 541 197 q 307 399 541 336 q 73 685 73 460 z "},"T":{"ha":814,"x_min":68,"x_max":746,"o":"m 746 949 l 746 746 l 543 746 l 543 0 l 271 0 l 271 746 l 68 746 l 68 949 l 746 949 z "},"U":{"ha":882,"x_min":68,"x_max":814,"o":"m 339 949 l 339 359 q 441 190 339 190 q 543 359 543 190 l 543 949 l 814 949 l 814 359 q 441 -14 814 -14 q 68 359 68 -14 l 68 949 l 339 949 z "},"V":{"ha":814,"x_min":0,"x_max":814,"o":"m 543 949 l 814 949 l 617 0 l 197 0 l 0 949 l 271 949 l 407 251 l 543 949 z "},"W":{"ha":1255,"x_min":0,"x_max":1255,"o":"m 217 0 l 0 949 l 271 949 l 373 326 l 475 949 l 780 949 l 882 326 l 983 949 l 1255 949 l 1038 0 l 726 0 l 627 524 l 529 0 l 217 0 z "},"X":{"ha":882,"x_min":34,"x_max":848,"o":"m 848 949 l 654 475 l 848 0 l 556 0 l 441 333 l 326 0 l 34 0 l 227 475 l 34 949 l 326 949 l 441 616 l 556 949 l 848 949 z "},"Y":{"ha":814,"x_min":0,"x_max":814,"o":"m 543 0 l 271 0 l 271 407 l 0 949 l 271 949 l 407 665 l 543 949 l 814 949 l 543 407 l 543 0 z "},"Z":{"ha":814,"x_min":68,"x_max":746,"o":"m 732 949 l 732 746 l 366 203 l 746 203 l 746 0 l 68 0 l 68 203 l 434 746 l 88 746 l 88 949 l 732 949 z "},"[":{"ha":576,"x_min":68,"x_max":509,"o":"m 509 1085 l 509 882 l 339 882 l 339 68 l 509 68 l 509 -136 l 68 -136 l 68 1085 l 509 1085 z "},"\\":{"ha":543,"x_min":0,"x_max":543,"o":"m 312 -136 l 0 1085 l 231 1085 l 543 -136 l 312 -136 z "},"]":{"ha":576,"x_min":68,"x_max":509,"o":"m 509 1085 l 509 -136 l 68 -136 l 68 68 l 237 68 l 237 882 l 68 882 l 68 1085 l 509 1085 z "},"^":{"ha":814,"x_min":68,"x_max":746,"o":"m 583 949 l 746 475 l 468 475 l 407 719 l 346 475 l 68 475 l 231 949 l 583 949 z "},"_":{"ha":543,"x_min":0,"x_max":543,"o":"m 543 -102 l 543 -271 l 0 -271 l 0 -102 l 543 -102 z "},"`":{"ha":631,"x_min":136,"x_max":495,"o":"m 251 746 l 136 949 l 427 949 l 495 746 l 251 746 z "},"a":{"ha":814,"x_min":68,"x_max":780,"o":"m 81 583 q 373 692 203 692 q 746 407 746 692 l 746 136 q 780 0 746 69 l 509 0 q 478 90 486 45 q 305 -14 429 -14 q 68 190 68 -14 q 407 407 68 407 l 475 407 q 373 488 475 488 q 203 420 271 488 l 81 583 m 393 176 q 475 224 454 176 l 475 258 l 393 258 q 339 224 339 258 q 393 176 339 176 z "},"b":{"ha":834,"x_min":68,"x_max":766,"o":"m 68 0 l 68 949 l 339 949 l 339 597 q 502 678 372 678 q 766 373 766 678 l 766 305 q 509 0 766 0 q 339 81 372 0 l 339 0 l 68 0 m 339 258 q 434 210 372 210 q 495 278 495 210 l 495 407 q 434 475 495 475 q 339 427 372 475 l 339 258 z "},"c":{"ha":813,"x_min":68,"x_max":745,"o":"m 448 -14 q 68 305 71 -14 l 68 373 q 448 692 71 692 q 745 576 694 692 l 576 427 q 448 488 543 488 q 339 373 342 488 l 339 312 q 448 190 339 190 q 576 251 543 190 l 745 102 q 448 -14 694 -14 z "},"d":{"ha":834,"x_min":68,"x_max":766,"o":"m 495 0 l 495 81 q 326 0 461 0 q 68 305 68 0 l 68 373 q 332 678 68 678 q 495 597 461 678 l 495 949 l 766 949 l 766 0 l 495 0 m 495 427 q 400 475 462 475 q 339 407 339 475 l 339 278 q 400 210 339 210 q 495 258 462 210 l 495 427 z "},"e":{"ha":814,"x_min":68,"x_max":746,"o":"m 746 264 l 339 264 q 427 190 345 190 q 556 251 522 190 l 725 102 q 427 -14 674 -14 q 68 292 71 -14 l 68 387 q 414 692 71 692 q 746 400 746 692 l 746 264 m 475 407 q 414 488 471 488 q 339 407 344 488 l 475 407 z "},"f":{"ha":576,"x_min":68,"x_max":509,"o":"m 136 475 l 68 475 l 68 678 l 136 678 l 136 746 q 407 949 136 949 l 509 949 l 509 746 l 475 746 q 407 678 407 746 l 509 678 l 509 475 l 407 475 l 407 0 l 136 0 l 136 475 z "},"g":{"ha":834,"x_min":68,"x_max":766,"o":"m 495 81 q 326 0 461 0 q 68 305 68 0 l 68 373 q 332 678 68 678 q 495 597 461 678 l 495 678 l 766 678 l 766 0 q 387 -285 762 -285 q 89 -170 140 -285 l 258 -20 q 387 -81 291 -81 q 495 7 495 -81 l 495 81 m 495 427 q 400 475 462 475 q 339 407 339 475 l 339 278 q 400 210 339 210 q 495 258 462 210 l 495 427 z "},"h":{"ha":834,"x_min":68,"x_max":766,"o":"m 339 0 l 68 0 l 68 949 l 339 949 l 339 597 q 502 678 372 678 q 766 373 766 678 l 766 0 l 495 0 l 495 407 q 434 475 495 475 q 339 427 372 475 l 339 0 z "},"i":{"ha":543,"x_min":136,"x_max":407,"o":"m 136 0 l 136 678 l 407 678 l 407 0 l 136 0 m 407 949 l 407 746 l 136 746 l 136 949 l 407 949 z "},"j":{"ha":543,"x_min":-68,"x_max":404,"o":"m 403 949 l 403 746 l 132 746 l 132 949 l 403 949 m 50 -81 q 132 -14 132 -81 l 132 678 l 404 678 l 404 -14 q 117 -285 403 -285 q -68 -254 42 -285 l -28 -62 q 50 -81 -4 -81 z "},"k":{"ha":782,"x_min":68,"x_max":780,"o":"m 339 949 l 339 481 l 468 678 l 780 678 l 576 414 l 780 0 l 488 0 l 397 194 l 339 122 l 339 0 l 68 0 l 68 949 l 339 949 z "},"l":{"ha":543,"x_min":136,"x_max":407,"o":"m 136 0 l 136 949 l 407 949 l 407 0 l 136 0 z "},"m":{"ha":1241,"x_min":68,"x_max":1194,"o":"m 339 0 l 68 0 l 68 678 l 339 678 l 339 597 q 502 678 372 678 q 709 601 651 678 q 929 678 783 678 q 1194 373 1194 678 l 1194 0 l 922 0 l 922 407 q 861 475 922 475 q 766 427 800 475 l 766 0 l 495 0 l 495 407 q 434 481 495 481 q 339 434 372 481 l 339 0 z "},"n":{"ha":834,"x_min":68,"x_max":766,"o":"m 339 0 l 68 0 l 68 678 l 339 678 l 339 597 q 502 678 372 678 q 766 373 766 678 l 766 0 l 495 0 l 495 407 q 434 475 495 475 q 339 427 372 475 l 339 0 z "},"o":{"ha":854,"x_min":68,"x_max":787,"o":"m 427 692 q 787 373 783 692 l 787 305 q 427 -14 783 -14 q 68 305 71 -14 l 68 373 q 427 692 71 692 m 427 190 q 515 312 515 190 l 515 366 q 427 488 515 488 q 339 366 339 488 l 339 312 q 427 190 339 190 z "},"p":{"ha":834,"x_min":68,"x_max":766,"o":"m 339 678 l 339 597 q 509 678 372 678 q 766 373 766 678 l 766 305 q 502 0 766 0 q 339 81 372 0 l 339 -271 l 68 -271 l 68 678 l 339 678 m 339 251 q 434 203 372 203 q 495 271 495 203 l 495 400 q 434 468 495 468 q 339 420 372 468 l 339 251 z "},"q":{"ha":834,"x_min":68,"x_max":766,"o":"m 766 678 l 766 -271 l 495 -271 l 495 81 q 332 0 461 0 q 68 305 68 0 l 68 373 q 326 678 68 678 q 495 597 461 678 l 495 678 l 766 678 m 495 420 q 400 468 462 468 q 339 400 339 468 l 339 271 q 400 203 339 203 q 495 251 462 203 l 495 420 z "},"r":{"ha":678,"x_min":68,"x_max":642,"o":"m 515 678 q 642 644 584 678 l 603 454 q 515 475 568 475 q 339 407 407 475 l 339 0 l 68 0 l 68 678 l 339 678 l 339 576 q 515 678 407 678 z "},"s":{"ha":742,"x_min":68,"x_max":674,"o":"m 334 183 q 402 210 402 183 q 328 244 402 237 q 71 468 71 252 q 403 692 75 692 q 656 628 546 692 l 581 454 q 403 495 533 495 q 345 468 345 495 l 344 468 q 410 434 344 441 q 674 210 674 427 l 673 210 q 334 -14 669 -14 q 68 47 146 -14 l 130 234 q 334 183 188 183 z "},"t":{"ha":576,"x_min":68,"x_max":509,"o":"m 136 882 l 407 882 l 407 678 l 509 678 l 509 475 l 407 475 l 407 271 q 475 203 407 203 l 509 203 l 509 0 l 407 0 q 136 203 136 0 l 136 475 l 68 475 l 68 678 l 136 678 l 136 882 z "},"u":{"ha":834,"x_min":68,"x_max":766,"o":"m 495 678 l 766 678 l 766 0 l 495 0 l 495 81 q 332 0 461 0 q 68 305 68 0 l 68 678 l 339 678 l 339 271 q 400 203 339 203 q 495 251 462 203 l 495 678 z "},"v":{"ha":746,"x_min":0,"x_max":746,"o":"m 170 0 l 0 678 l 278 678 l 373 197 l 468 678 l 746 678 l 576 0 l 170 0 z "},"w":{"ha":1153,"x_min":0,"x_max":1153,"o":"m 136 0 l 0 678 l 278 678 l 339 231 l 400 678 l 753 678 l 814 231 l 875 678 l 1153 678 l 1017 0 l 644 0 l 576 377 l 509 0 l 136 0 z "},"x":{"ha":814,"x_min":34,"x_max":780,"o":"m 780 678 l 621 339 l 780 0 l 488 0 l 407 222 l 326 0 l 34 0 l 193 339 l 34 678 l 326 678 l 407 455 l 488 678 l 780 678 z "},"y":{"ha":746,"x_min":0,"x_max":746,"o":"m 170 -271 q 136 -270 153 -271 q 102 -264 119 -268 l 116 -64 q 149 -68 133 -66 q 178 -69 164 -69 q 308 0 279 -69 l 170 0 l 0 678 l 278 678 l 372 191 l 468 678 l 746 678 l 553 -68 q 170 -271 481 -271 z "},"z":{"ha":746,"x_min":68,"x_max":678,"o":"m 665 678 l 665 475 l 387 203 l 678 203 l 678 0 l 68 0 l 68 203 l 353 475 l 88 475 l 88 678 l 665 678 z "},"{":{"ha":678,"x_min":68,"x_max":610,"o":"m 203 237 q 68 373 203 373 l 68 576 q 203 712 203 576 l 203 746 q 610 1085 203 1085 l 610 882 q 475 746 475 882 l 475 678 q 370 475 475 531 q 475 271 475 418 l 475 203 q 610 68 475 68 l 610 -136 q 203 203 203 -136 l 203 237 z "},"|":{"ha":543,"x_min":136,"x_max":407,"o":"m 136 -136 l 136 1085 l 407 1085 l 407 -136 l 136 -136 z "},"}":{"ha":678,"x_min":68,"x_max":610,"o":"m 475 203 q 68 -136 475 -136 l 68 68 q 203 203 203 68 l 203 271 q 309 475 203 418 q 203 678 203 531 l 203 746 q 68 882 203 882 l 68 1085 q 475 746 475 1085 l 475 712 q 610 576 475 576 l 610 373 q 475 237 475 373 l 475 203 z "},"~":{"ha":814,"x_min":68,"x_max":746,"o":"m 68 563 q 237 665 136 665 q 417 624 338 665 q 590 583 495 583 q 746 665 677 583 l 746 461 q 576 359 677 359 q 397 400 475 359 q 224 441 318 441 q 68 359 136 441 l 68 563 z "}," ":{"ha":543,"x_min":0,"x_max":0,"o":""},"¡":{"ha":543,"x_min":136,"x_max":407,"o":"m 136 -271 l 136 0 l 149 407 l 393 407 l 407 0 l 407 -271 l 136 -271 m 136 475 l 136 678 l 407 678 l 407 475 l 136 475 z "},"¢":{"ha":813,"x_min":68,"x_max":745,"o":"m 393 123 q 68 441 70 146 l 68 509 q 393 825 70 804 l 393 949 l 495 949 l 495 826 q 745 712 699 816 l 576 563 q 495 619 552 607 l 495 330 q 576 387 552 342 l 745 237 q 495 123 700 134 l 495 0 l 393 0 l 393 123 m 339 448 q 393 336 339 361 l 393 613 q 339 509 341 589 l 339 448 z "},"£":{"ha":882,"x_min":68,"x_max":814,"o":"m 610 678 q 495 760 576 760 q 407 644 410 760 l 407 576 l 610 576 l 610 373 l 407 373 l 407 203 l 814 203 l 814 0 l 136 0 l 136 373 l 68 373 l 68 576 l 136 576 l 136 644 q 495 963 139 963 q 813 827 762 963 l 610 678 z "},"¥":{"ha":814,"x_min":0,"x_max":814,"o":"m 271 271 l 271 373 l 68 373 l 68 543 l 203 543 l 0 949 l 271 949 l 407 665 l 543 949 l 814 949 l 610 543 l 746 543 l 746 373 l 543 373 l 543 271 l 746 271 l 746 102 l 543 102 l 543 0 l 271 0 l 271 102 l 68 102 l 68 271 l 271 271 z "},"¦":{"ha":543,"x_min":136,"x_max":407,"o":"m 407 1085 l 407 543 l 136 543 l 136 1085 l 407 1085 m 407 407 l 407 -136 l 136 -136 l 136 407 l 407 407 z "},"¨":{"ha":814,"x_min":68,"x_max":746,"o":"m 339 949 l 339 746 l 68 746 l 68 949 l 339 949 m 746 949 l 746 746 l 475 746 l 475 949 l 746 949 z "},"©":{"ha":1000,"x_min":68,"x_max":932,"o":"m 932 576 q 806 271 932 397 q 500 144 680 144 q 195 271 321 144 q 68 576 68 397 q 195 882 68 755 q 500 1009 321 1009 q 806 882 680 1009 q 932 576 932 755 m 500 907 q 267 810 363 907 q 170 576 170 713 q 267 342 170 439 q 500 246 363 246 q 734 342 637 246 q 831 576 831 439 q 734 810 831 713 q 500 907 637 907 m 618 627 q 590 667 608 648 q 500 704 553 704 q 410 667 448 704 q 373 576 373 629 q 410 486 373 524 q 500 450 448 450 q 590 486 553 450 q 619 530 610 506 l 724 530 q 662 415 712 465 q 500 348 595 348 q 338 415 406 348 q 271 576 271 482 q 338 739 271 671 q 500 806 406 806 q 662 739 595 806 q 724 627 711 689 l 618 627 z "},"«":{"ha":1017,"x_min":68,"x_max":949,"o":"m 68 475 l 271 746 l 543 746 l 373 475 l 543 203 l 271 203 l 68 475 m 475 475 l 678 746 l 949 746 l 780 475 l 949 203 l 678 203 l 475 475 z "},"¬":{"ha":882,"x_min":68,"x_max":814,"o":"m 814 576 l 814 170 l 543 170 l 543 366 l 68 366 l 68 576 l 814 576 z "},"®":{"ha":712,"x_min":68,"x_max":644,"o":"m 644 865 q 559 661 644 745 q 356 576 475 576 q 152 661 236 576 q 68 865 68 745 q 152 1068 68 984 q 356 1153 237 1153 q 559 1068 475 1153 q 644 865 644 983 m 356 1085 q 200 1021 266 1085 q 136 865 136 956 q 200 709 136 774 q 356 644 266 644 q 512 709 448 644 q 576 865 576 774 q 512 1021 576 956 q 356 1085 448 1085 m 390 1017 q 492 916 492 1017 q 421 817 492 831 l 492 712 l 414 712 l 345 814 l 288 814 l 288 712 l 220 712 l 220 1017 l 390 1017 m 390 882 q 424 916 424 882 q 390 949 424 949 l 288 949 l 288 882 l 390 882 z "},"°":{"ha":543,"x_min":68,"x_max":475,"o":"m 475 746 q 415 602 475 662 q 271 543 355 543 q 127 602 187 543 q 68 746 68 662 q 127 890 68 830 q 271 949 187 949 q 415 890 355 949 q 475 746 475 830 m 271 814 q 223 794 243 814 q 203 746 203 774 q 223 698 203 718 q 271 678 243 678 q 319 698 300 678 q 339 746 339 718 q 319 794 339 774 q 271 814 300 814 z "},"±":{"ha":814,"x_min":68,"x_max":746,"o":"m 271 949 l 543 949 l 543 712 l 746 712 l 746 509 l 543 509 l 543 271 l 271 271 l 271 509 l 68 509 l 68 712 l 271 712 l 271 949 m 746 203 l 746 0 l 68 0 l 68 203 l 746 203 z "},"´":{"ha":631,"x_min":136,"x_max":495,"o":"m 136 746 l 203 949 l 495 949 l 380 746 l 136 746 z "},"µ":{"ha":882,"x_min":68,"x_max":814,"o":"m 814 678 l 814 0 l 543 0 l 543 68 q 441 0 509 0 q 339 68 372 0 l 339 -271 l 68 -271 l 68 678 l 339 678 l 339 278 q 441 203 373 203 q 543 278 509 203 l 543 678 l 814 678 z "},"¶":{"ha":949,"x_min":68,"x_max":882,"o":"m 339 407 q 68 678 68 407 q 339 949 68 949 l 882 949 l 882 -136 l 678 -136 l 678 746 l 543 746 l 543 -136 l 339 -136 l 339 407 z "},"·":{"ha":475,"x_min":136,"x_max":339,"o":"m 339 576 l 339 373 l 136 373 l 136 576 l 339 576 z "},"¸":{"ha":631,"x_min":136,"x_max":495,"o":"m 495 -68 l 427 -271 l 136 -271 l 251 -68 l 495 -68 z "},"»":{"ha":1017,"x_min":68,"x_max":949,"o":"m 746 203 l 475 203 l 644 475 l 475 746 l 746 746 l 949 475 l 746 203 m 339 203 l 68 203 l 237 475 l 68 746 l 339 746 l 543 475 l 339 203 z "},"¿":{"ha":881,"x_min":68,"x_max":813,"o":"m 69 0 q 204 251 69 170 q 347 407 339 332 l 604 407 q 472 187 604 271 q 340 0 340 102 q 442 -81 340 -81 q 543 14 543 -81 l 813 -12 q 442 -285 795 -285 q 69 0 69 -285 m 340 475 l 340 678 l 611 678 l 611 475 l 340 475 z "},"À":{"ha":814,"x_min":0,"x_max":814,"o":"m 617 949 l 814 0 l 543 0 l 508 203 l 305 203 l 271 0 l 0 0 l 197 949 l 617 949 m 349 407 l 465 407 l 407 699 l 349 407 m 283 1017 l 168 1221 l 459 1221 l 527 1017 l 283 1017 z "},"Á":{"ha":814,"x_min":0,"x_max":814,"o":"m 617 949 l 814 0 l 543 0 l 508 203 l 305 203 l 271 0 l 0 0 l 197 949 l 617 949 m 349 407 l 465 407 l 407 699 l 349 407 m 287 1017 l 355 1221 l 646 1221 l 531 1017 l 287 1017 z "},"Â":{"ha":814,"x_min":0,"x_max":814,"o":"m 617 949 l 814 0 l 543 0 l 508 203 l 305 203 l 271 0 l 0 0 l 197 949 l 617 949 m 349 407 l 465 407 l 407 699 l 349 407 m 536 1221 l 644 1017 l 454 1017 l 407 1092 l 359 1017 l 170 1017 l 278 1221 l 536 1221 z "},"Ã":{"ha":814,"x_min":0,"x_max":814,"o":"m 617 949 l 814 0 l 543 0 l 508 203 l 305 203 l 271 0 l 0 0 l 197 949 l 617 949 m 349 407 l 465 407 l 407 699 l 349 407 m 183 1154 q 302 1221 228 1221 q 410 1194 363 1221 q 514 1167 458 1167 q 631 1221 579 1167 l 631 1086 q 512 1019 586 1019 q 404 1045 451 1019 q 300 1072 356 1072 q 183 1019 235 1072 l 183 1154 z "},"Ä":{"ha":814,"x_min":0,"x_max":814,"o":"m 617 949 l 814 0 l 543 0 l 508 203 l 305 203 l 271 0 l 0 0 l 197 949 l 617 949 m 349 407 l 465 407 l 407 699 l 349 407 m 339 1221 l 339 1017 l 68 1017 l 68 1221 l 339 1221 m 746 1221 l 746 1017 l 475 1017 l 475 1221 l 746 1221 z "},"Å":{"ha":814,"x_min":0,"x_max":814,"o":"m 617 949 l 814 0 l 543 0 l 508 203 l 305 203 l 271 0 l 0 0 l 197 949 l 617 949 m 349 407 l 465 407 l 407 699 l 349 407 m 543 1153 q 503 1057 543 1097 q 407 1017 463 1017 q 311 1057 350 1017 q 271 1153 271 1096 q 311 1249 271 1209 q 407 1289 351 1289 q 503 1249 463 1289 q 543 1153 543 1208 m 407 1187 q 383 1177 393 1187 q 373 1153 373 1167 q 383 1129 373 1139 q 407 1119 393 1119 q 431 1129 421 1119 q 441 1153 441 1139 q 431 1177 441 1167 q 407 1187 421 1187 z "},"Æ":{"ha":1289,"x_min":0,"x_max":1221,"o":"m 1221 949 l 1221 746 l 814 746 l 814 576 l 1187 576 l 1187 373 l 814 373 l 814 203 l 1221 203 l 1221 0 l 543 0 l 543 203 l 329 203 l 271 0 l 0 0 l 271 949 l 1221 949 m 380 407 l 543 407 l 543 746 l 481 746 l 380 407 z "},"Ç":{"ha":881,"x_min":68,"x_max":813,"o":"m 441 -14 q 68 359 68 -14 l 68 583 q 441 963 68 963 q 812 690 794 963 l 543 665 q 441 760 543 760 q 339 583 339 760 l 339 359 q 441 190 339 190 q 543 278 543 190 l 813 258 q 441 -14 796 -14 m 621 -68 l 553 -271 l 261 -271 l 376 -68 l 621 -68 z "},"È":{"ha":814,"x_min":68,"x_max":746,"o":"m 746 949 l 746 746 l 339 746 l 339 576 l 712 576 l 712 373 l 339 373 l 339 203 l 746 203 l 746 0 l 68 0 l 68 949 l 746 949 m 283 1017 l 168 1221 l 459 1221 l 527 1017 l 283 1017 z "},"É":{"ha":814,"x_min":68,"x_max":746,"o":"m 746 949 l 746 746 l 339 746 l 339 576 l 712 576 l 712 373 l 339 373 l 339 203 l 746 203 l 746 0 l 68 0 l 68 949 l 746 949 m 287 1017 l 355 1221 l 646 1221 l 531 1017 l 287 1017 z "},"Ê":{"ha":814,"x_min":68,"x_max":746,"o":"m 746 949 l 746 746 l 339 746 l 339 576 l 712 576 l 712 373 l 339 373 l 339 203 l 746 203 l 746 0 l 68 0 l 68 949 l 746 949 m 536 1221 l 644 1017 l 454 1017 l 407 1092 l 359 1017 l 170 1017 l 278 1221 l 536 1221 z "},"Ë":{"ha":814,"x_min":68,"x_max":746,"o":"m 746 949 l 746 746 l 339 746 l 339 576 l 712 576 l 712 373 l 339 373 l 339 203 l 746 203 l 746 0 l 68 0 l 68 949 l 746 949 m 339 1221 l 339 1017 l 68 1017 l 68 1221 l 339 1221 m 746 1221 l 746 1017 l 475 1017 l 475 1221 l 746 1221 z "},"Ì":{"ha":543,"x_min":33,"x_max":407,"o":"m 136 0 l 136 949 l 407 949 l 407 0 l 136 0 m 149 1017 l 33 1221 l 325 1221 l 393 1017 l 149 1017 z "},"Í":{"ha":543,"x_min":136,"x_max":511,"o":"m 136 0 l 136 949 l 407 949 l 407 0 l 136 0 m 151 1017 l 219 1221 l 511 1221 l 395 1017 l 151 1017 z "},"Î":{"ha":543,"x_min":35,"x_max":510,"o":"m 136 0 l 136 949 l 407 949 l 407 0 l 136 0 m 401 1221 l 510 1017 l 320 1017 l 273 1092 l 225 1017 l 35 1017 l 144 1221 l 401 1221 z "},"Ï":{"ha":543,"x_min":-66,"x_max":612,"o":"m 136 0 l 136 949 l 407 949 l 407 0 l 136 0 m 205 1221 l 205 1017 l -66 1017 l -66 1221 l 205 1221 m 612 1221 l 612 1017 l 340 1017 l 340 1221 l 612 1221 z "},"Ð":{"ha":949,"x_min":68,"x_max":882,"o":"m 882 373 q 475 0 882 0 l 136 0 l 136 387 l 68 387 l 68 563 l 136 563 l 136 949 l 475 949 q 882 570 882 949 l 882 373 m 407 746 l 407 563 l 543 563 l 543 387 l 407 387 l 407 203 l 475 203 q 610 373 610 203 l 610 570 q 475 746 610 746 l 407 746 z "},"Ñ":{"ha":949,"x_min":68,"x_max":882,"o":"m 68 0 l 68 949 l 407 949 l 610 475 l 610 949 l 882 949 l 882 0 l 543 0 l 339 475 l 339 0 l 68 0 m 251 1154 q 370 1221 296 1221 q 478 1194 431 1221 q 582 1167 526 1167 q 699 1221 647 1167 l 699 1086 q 580 1019 654 1019 q 471 1045 519 1019 q 368 1072 424 1072 q 251 1019 302 1072 l 251 1154 z "},"Ò":{"ha":882,"x_min":68,"x_max":814,"o":"m 441 760 q 339 583 339 760 l 339 359 q 441 190 339 190 q 543 359 543 190 l 543 583 q 441 760 543 760 m 814 583 l 814 359 q 441 -14 814 -14 q 68 359 68 -14 l 68 583 q 441 963 68 963 q 814 583 814 963 m 317 1017 l 201 1221 l 493 1221 l 561 1017 l 317 1017 z "},"Ó":{"ha":882,"x_min":68,"x_max":814,"o":"m 441 760 q 339 583 339 760 l 339 359 q 441 190 339 190 q 543 359 543 190 l 543 583 q 441 760 543 760 m 814 583 l 814 359 q 441 -14 814 -14 q 68 359 68 -14 l 68 583 q 441 963 68 963 q 814 583 814 963 m 321 1017 l 389 1221 l 680 1221 l 565 1017 l 321 1017 z "},"Ô":{"ha":882,"x_min":68,"x_max":814,"o":"m 441 760 q 339 583 339 760 l 339 359 q 441 190 339 190 q 543 359 543 190 l 543 583 q 441 760 543 760 m 814 583 l 814 359 q 441 -14 814 -14 q 68 359 68 -14 l 68 583 q 441 963 68 963 q 814 583 814 963 m 570 1221 l 678 1017 l 488 1017 l 441 1092 l 393 1017 l 203 1017 l 312 1221 l 570 1221 z "},"Õ":{"ha":882,"x_min":68,"x_max":814,"o":"m 441 760 q 339 583 339 760 l 339 359 q 441 190 339 190 q 543 359 543 190 l 543 583 q 441 760 543 760 m 814 583 l 814 359 q 441 -14 814 -14 q 68 359 68 -14 l 68 583 q 441 963 68 963 q 814 583 814 963 m 217 1154 q 336 1221 262 1221 q 444 1194 397 1221 q 548 1167 492 1167 q 665 1221 613 1167 l 665 1086 q 546 1019 620 1019 q 437 1045 485 1019 q 334 1072 390 1072 q 217 1019 269 1072 l 217 1154 z "},"Ö":{"ha":882,"x_min":68,"x_max":814,"o":"m 441 760 q 339 583 339 760 l 339 359 q 441 190 339 190 q 543 359 543 190 l 543 583 q 441 760 543 760 m 814 583 l 814 359 q 441 -14 814 -14 q 68 359 68 -14 l 68 583 q 441 963 68 963 q 814 583 814 963 m 373 1221 l 373 1017 l 102 1017 l 102 1221 l 373 1221 m 780 1221 l 780 1017 l 509 1017 l 509 1221 l 780 1221 z "},"×":{"ha":746,"x_min":61,"x_max":684,"o":"m 61 642 l 205 787 l 373 618 l 541 787 l 684 642 l 517 475 l 684 307 l 541 163 l 373 331 l 205 163 l 61 307 l 229 475 l 61 642 z "},"Ø":{"ha":882,"x_min":68,"x_max":814,"o":"m 170 -136 l 222 34 q 68 359 68 118 l 68 583 q 441 963 68 963 q 510 959 477 963 l 549 1085 l 712 1085 l 659 915 q 814 583 814 827 l 814 359 q 441 -14 814 -14 q 371 -9 404 -14 l 332 -136 l 170 -136 m 441 190 q 543 359 543 190 l 543 541 l 433 190 l 441 190 m 441 760 q 339 583 339 760 l 339 409 l 448 760 l 441 760 z "},"Ù":{"ha":882,"x_min":68,"x_max":814,"o":"m 339 949 l 339 359 q 441 190 339 190 q 543 359 543 190 l 543 949 l 814 949 l 814 359 q 441 -14 814 -14 q 68 359 68 -14 l 68 949 l 339 949 m 317 1017 l 201 1221 l 493 1221 l 561 1017 l 317 1017 z "},"Ú":{"ha":882,"x_min":68,"x_max":814,"o":"m 339 949 l 339 359 q 441 190 339 190 q 543 359 543 190 l 543 949 l 814 949 l 814 359 q 441 -14 814 -14 q 68 359 68 -14 l 68 949 l 339 949 m 321 1017 l 389 1221 l 680 1221 l 565 1017 l 321 1017 z "},"Û":{"ha":882,"x_min":68,"x_max":814,"o":"m 339 949 l 339 359 q 441 190 339 190 q 543 359 543 190 l 543 949 l 814 949 l 814 359 q 441 -14 814 -14 q 68 359 68 -14 l 68 949 l 339 949 m 570 1221 l 678 1017 l 488 1017 l 441 1092 l 393 1017 l 203 1017 l 312 1221 l 570 1221 z "},"Ü":{"ha":882,"x_min":68,"x_max":814,"o":"m 339 949 l 339 359 q 441 190 339 190 q 543 359 543 190 l 543 949 l 814 949 l 814 359 q 441 -14 814 -14 q 68 359 68 -14 l 68 949 l 339 949 m 373 1221 l 373 1017 l 102 1017 l 102 1221 l 373 1221 m 780 1221 l 780 1017 l 509 1017 l 509 1221 l 780 1221 z "},"Ý":{"ha":814,"x_min":0,"x_max":814,"o":"m 543 0 l 271 0 l 271 407 l 0 949 l 271 949 l 407 665 l 543 949 l 814 949 l 543 407 l 543 0 m 287 1017 l 355 1221 l 646 1221 l 531 1017 l 287 1017 z "},"Þ":{"ha":882,"x_min":68,"x_max":814,"o":"m 475 780 q 814 475 814 780 q 407 170 814 170 l 339 170 l 339 0 l 68 0 l 68 949 l 339 949 l 339 780 l 475 780 m 407 373 q 543 475 543 373 q 407 576 543 576 l 339 576 l 339 373 l 407 373 z "},"ß":{"ha":882,"x_min":68,"x_max":827,"o":"m 441 949 q 814 678 814 949 q 686 476 814 532 q 827 271 827 421 q 407 0 827 0 l 407 203 q 556 292 556 203 q 407 373 556 373 l 407 576 q 543 658 543 576 q 441 746 543 746 q 339 644 339 746 l 339 0 l 68 0 l 68 644 q 441 949 68 949 z "},"à":{"ha":814,"x_min":68,"x_max":780,"o":"m 81 583 q 373 692 203 692 q 746 407 746 692 l 746 136 q 780 0 746 69 l 509 0 q 478 90 486 45 q 305 -14 429 -14 q 68 190 68 -14 q 407 407 68 407 l 475 407 q 373 488 475 488 q 203 420 271 488 l 81 583 m 393 176 q 475 224 454 176 l 475 258 l 393 258 q 339 224 339 258 q 393 176 339 176 m 300 746 l 184 949 l 476 949 l 544 746 l 300 746 z "},"á":{"ha":814,"x_min":68,"x_max":780,"o":"m 81 583 q 373 692 203 692 q 746 407 746 692 l 746 136 q 780 0 746 69 l 509 0 q 478 90 486 45 q 305 -14 429 -14 q 68 190 68 -14 q 407 407 68 407 l 475 407 q 373 488 475 488 q 203 420 271 488 l 81 583 m 393 176 q 475 224 454 176 l 475 258 l 393 258 q 339 224 339 258 q 393 176 339 176 m 304 746 l 372 949 l 663 949 l 548 746 l 304 746 z "},"â":{"ha":814,"x_min":68,"x_max":780,"o":"m 81 583 q 373 692 203 692 q 746 407 746 692 l 746 136 q 780 0 746 69 l 509 0 q 478 90 486 45 q 305 -14 429 -14 q 68 190 68 -14 q 407 407 68 407 l 475 407 q 373 488 475 488 q 203 420 271 488 l 81 583 m 393 176 q 475 224 454 176 l 475 258 l 393 258 q 339 224 339 258 q 393 176 339 176 m 553 949 l 661 746 l 471 746 l 424 821 l 376 746 l 186 746 l 295 949 l 553 949 z "},"ã":{"ha":814,"x_min":68,"x_max":780,"o":"m 81 583 q 373 692 203 692 q 746 407 746 692 l 746 136 q 780 0 746 69 l 509 0 q 478 90 486 45 q 305 -14 429 -14 q 68 190 68 -14 q 407 407 68 407 l 475 407 q 373 488 475 488 q 203 420 271 488 l 81 583 m 393 176 q 475 224 454 176 l 475 258 l 393 258 q 339 224 339 258 q 393 176 339 176 m 200 882 q 319 949 245 949 q 427 922 380 949 q 531 896 475 896 q 648 949 596 896 l 648 814 q 529 747 603 747 q 420 774 468 747 q 317 801 373 801 q 200 747 252 801 l 200 882 z "},"ä":{"ha":814,"x_min":68,"x_max":780,"o":"m 81 583 q 373 692 203 692 q 746 407 746 692 l 746 136 q 780 0 746 69 l 509 0 q 478 90 486 45 q 305 -14 429 -14 q 68 190 68 -14 q 407 407 68 407 l 475 407 q 373 488 475 488 q 203 420 271 488 l 81 583 m 393 176 q 475 224 454 176 l 475 258 l 393 258 q 339 224 339 258 q 393 176 339 176 m 356 949 l 356 746 l 85 746 l 85 949 l 356 949 m 763 949 l 763 746 l 492 746 l 492 949 l 763 949 z "},"å":{"ha":814,"x_min":68,"x_max":780,"o":"m 81 583 q 373 692 203 692 q 746 407 746 692 l 746 136 q 780 0 746 69 l 509 0 q 478 90 486 45 q 305 -14 429 -14 q 68 190 68 -14 q 407 407 68 407 l 475 407 q 373 488 475 488 q 203 420 271 488 l 81 583 m 393 176 q 475 224 454 176 l 475 258 l 393 258 q 339 224 339 258 q 393 176 339 176 m 559 882 q 519 785 559 825 q 424 746 480 746 q 328 785 367 746 q 288 882 288 825 q 328 977 288 938 q 424 1017 368 1017 q 519 977 479 1017 q 559 882 559 937 m 424 916 q 400 906 410 916 q 390 882 390 896 q 400 858 390 867 q 424 848 410 848 q 448 858 438 848 q 458 882 458 867 q 448 906 458 896 q 424 916 438 916 z "},"æ":{"ha":1221,"x_min":68,"x_max":1153,"o":"m 834 -14 q 595 90 666 -14 q 305 -14 485 -14 q 68 190 68 -14 q 407 407 68 407 l 475 407 q 373 488 475 488 q 203 420 271 488 l 81 583 q 373 692 203 692 q 610 612 534 692 q 821 692 680 692 q 1153 400 1153 692 l 1153 264 l 746 264 q 834 190 752 190 q 963 251 929 190 l 1132 102 q 834 -14 1081 -14 m 393 176 q 475 224 454 176 l 475 258 l 393 258 q 339 224 339 258 q 393 176 339 176 m 882 407 q 821 488 878 488 q 746 407 751 488 l 882 407 z "},"ç":{"ha":813,"x_min":68,"x_max":745,"o":"m 448 -14 q 68 305 71 -14 l 68 373 q 448 692 71 692 q 745 576 694 692 l 576 427 q 448 488 543 488 q 339 373 342 488 l 339 312 q 448 190 339 190 q 576 251 543 190 l 745 102 q 448 -14 694 -14 m 587 -68 l 519 -271 l 227 -271 l 342 -68 l 587 -68 z "},"è":{"ha":814,"x_min":68,"x_max":746,"o":"m 746 264 l 339 264 q 427 190 345 190 q 556 251 522 190 l 725 102 q 427 -14 674 -14 q 68 292 71 -14 l 68 387 q 414 692 71 692 q 746 400 746 692 l 746 264 m 475 407 q 414 488 471 488 q 339 407 344 488 l 475 407 m 283 746 l 168 949 l 459 949 l 527 746 l 283 746 z "},"é":{"ha":814,"x_min":68,"x_max":746,"o":"m 746 264 l 339 264 q 427 190 345 190 q 556 251 522 190 l 725 102 q 427 -14 674 -14 q 68 292 71 -14 l 68 387 q 414 692 71 692 q 746 400 746 692 l 746 264 m 475 407 q 414 488 471 488 q 339 407 344 488 l 475 407 m 287 746 l 355 949 l 646 949 l 531 746 l 287 746 z "},"ê":{"ha":814,"x_min":68,"x_max":746,"o":"m 746 264 l 339 264 q 427 190 345 190 q 556 251 522 190 l 725 102 q 427 -14 674 -14 q 68 292 71 -14 l 68 387 q 414 692 71 692 q 746 400 746 692 l 746 264 m 475 407 q 414 488 471 488 q 339 407 344 488 l 475 407 m 536 949 l 644 746 l 454 746 l 407 821 l 359 746 l 170 746 l 278 949 l 536 949 z "},"ë":{"ha":814,"x_min":68,"x_max":746,"o":"m 746 264 l 339 264 q 427 190 345 190 q 556 251 522 190 l 725 102 q 427 -14 674 -14 q 68 292 71 -14 l 68 387 q 414 692 71 692 q 746 400 746 692 l 746 264 m 475 407 q 414 488 471 488 q 339 407 344 488 l 475 407 m 339 949 l 339 746 l 68 746 l 68 949 l 339 949 m 746 949 l 746 746 l 475 746 l 475 949 l 746 949 z "},"ì":{"ha":543,"x_min":33,"x_max":407,"o":"m 136 0 l 136 678 l 407 678 l 407 0 l 136 0 m 149 746 l 33 949 l 325 949 l 393 746 l 149 746 z "},"í":{"ha":543,"x_min":136,"x_max":511,"o":"m 136 0 l 136 678 l 407 678 l 407 0 l 136 0 m 151 746 l 219 949 l 511 949 l 395 746 l 151 746 z "},"î":{"ha":543,"x_min":35,"x_max":510,"o":"m 136 0 l 136 678 l 407 678 l 407 0 l 136 0 m 401 949 l 510 746 l 320 746 l 273 821 l 225 746 l 35 746 l 144 949 l 401 949 z "},"ï":{"ha":543,"x_min":-66,"x_max":612,"o":"m 136 0 l 136 678 l 407 678 l 407 0 l 136 0 m 205 949 l 205 746 l -66 746 l -66 949 l 205 949 m 612 949 l 612 746 l 340 746 l 340 949 l 612 949 z "},"ð":{"ha":834,"x_min":68,"x_max":861,"o":"m 495 0 l 495 81 q 326 0 461 0 q 68 305 68 0 l 68 373 q 332 678 68 678 q 495 597 461 678 l 495 746 l 387 746 l 387 888 l 495 888 l 495 949 l 766 949 l 766 888 l 861 888 l 861 746 l 766 746 l 766 0 l 495 0 m 495 427 q 400 475 462 475 q 339 373 339 475 l 339 305 q 400 203 339 203 q 495 251 462 203 l 495 427 z "},"ñ":{"ha":834,"x_min":68,"x_max":766,"o":"m 339 0 l 68 0 l 68 678 l 339 678 l 339 597 q 502 678 372 678 q 766 373 766 678 l 766 0 l 495 0 l 495 407 q 434 475 495 475 q 339 427 372 475 l 339 0 m 193 882 q 312 949 238 949 q 420 922 373 949 q 524 896 468 896 q 641 949 589 896 l 641 814 q 522 747 596 747 q 414 774 461 747 q 310 801 366 801 q 193 747 245 801 l 193 882 z "},"ò":{"ha":854,"x_min":68,"x_max":787,"o":"m 427 692 q 787 373 783 692 l 787 305 q 427 -14 783 -14 q 68 305 71 -14 l 68 373 q 427 692 71 692 m 427 190 q 515 312 515 190 l 515 366 q 427 488 515 488 q 339 366 339 488 l 339 312 q 427 190 339 190 m 303 746 l 188 949 l 479 949 l 547 746 l 303 746 z "},"ó":{"ha":854,"x_min":68,"x_max":787,"o":"m 427 692 q 787 373 783 692 l 787 305 q 427 -14 783 -14 q 68 305 71 -14 l 68 373 q 427 692 71 692 m 427 190 q 515 312 515 190 l 515 366 q 427 488 515 488 q 339 366 339 488 l 339 312 q 427 190 339 190 m 307 746 l 375 949 l 667 949 l 551 746 l 307 746 z "},"ô":{"ha":854,"x_min":68,"x_max":787,"o":"m 427 692 q 787 373 783 692 l 787 305 q 427 -14 783 -14 q 68 305 71 -14 l 68 373 q 427 692 71 692 m 427 190 q 515 312 515 190 l 515 366 q 427 488 515 488 q 339 366 339 488 l 339 312 q 427 190 339 190 m 556 949 l 665 746 l 475 746 l 427 821 l 380 746 l 190 746 l 298 949 l 556 949 z "},"õ":{"ha":854,"x_min":68,"x_max":787,"o":"m 427 692 q 787 373 783 692 l 787 305 q 427 -14 783 -14 q 68 305 71 -14 l 68 373 q 427 692 71 692 m 427 190 q 515 312 515 190 l 515 366 q 427 488 515 488 q 339 366 339 488 l 339 312 q 427 190 339 190 m 203 882 q 322 949 248 949 q 431 922 383 949 q 534 896 478 896 q 651 949 600 896 l 651 814 q 532 747 606 747 q 424 774 471 747 q 320 801 376 801 q 203 747 255 801 l 203 882 z "},"ö":{"ha":854,"x_min":68,"x_max":787,"o":"m 427 692 q 787 373 783 692 l 787 305 q 427 -14 783 -14 q 68 305 71 -14 l 68 373 q 427 692 71 692 m 427 190 q 515 312 515 190 l 515 366 q 427 488 515 488 q 339 366 339 488 l 339 312 q 427 190 339 190 m 359 949 l 359 746 l 88 746 l 88 949 l 359 949 m 766 949 l 766 746 l 495 746 l 495 949 l 766 949 z "},"÷":{"ha":814,"x_min":68,"x_max":746,"o":"m 746 576 l 746 373 l 68 373 l 68 576 l 746 576 m 509 305 l 509 102 l 305 102 l 305 305 l 509 305 m 509 848 l 509 644 l 305 644 l 305 848 l 509 848 z "},"ø":{"ha":854,"x_min":68,"x_max":787,"o":"m 427 692 q 484 690 456 692 l 583 983 l 712 983 l 604 665 q 787 373 784 599 l 787 305 q 427 -14 783 -14 q 374 -12 399 -14 l 298 -237 l 170 -237 l 254 12 q 68 305 70 75 l 68 373 q 427 692 71 692 m 339 312 q 340 291 339 300 q 342 271 340 281 l 415 488 q 339 366 339 479 l 339 312 m 515 366 q 513 398 515 382 l 444 191 q 515 312 515 201 l 515 366 z "},"ù":{"ha":834,"x_min":68,"x_max":766,"o":"m 495 678 l 766 678 l 766 0 l 495 0 l 495 81 q 332 0 461 0 q 68 305 68 0 l 68 678 l 339 678 l 339 271 q 400 203 339 203 q 495 251 462 203 l 495 678 m 293 746 l 178 949 l 469 949 l 537 746 l 293 746 z "},"ú":{"ha":834,"x_min":68,"x_max":766,"o":"m 495 678 l 766 678 l 766 0 l 495 0 l 495 81 q 332 0 461 0 q 68 305 68 0 l 68 678 l 339 678 l 339 271 q 400 203 339 203 q 495 251 462 203 l 495 678 m 297 746 l 365 949 l 656 949 l 541 746 l 297 746 z "},"û":{"ha":834,"x_min":68,"x_max":766,"o":"m 495 678 l 766 678 l 766 0 l 495 0 l 495 81 q 332 0 461 0 q 68 305 68 0 l 68 678 l 339 678 l 339 271 q 400 203 339 203 q 495 251 462 203 l 495 678 m 546 949 l 654 746 l 465 746 l 417 821 l 370 746 l 180 746 l 288 949 l 546 949 z "},"ü":{"ha":834,"x_min":68,"x_max":766,"o":"m 495 678 l 766 678 l 766 0 l 495 0 l 495 81 q 332 0 461 0 q 68 305 68 0 l 68 678 l 339 678 l 339 271 q 400 203 339 203 q 495 251 462 203 l 495 678 m 349 949 l 349 746 l 78 746 l 78 949 l 349 949 m 756 949 l 756 746 l 485 746 l 485 949 l 756 949 z "},"ý":{"ha":746,"x_min":0,"x_max":746,"o":"m 170 -271 q 136 -270 153 -271 q 102 -264 119 -268 l 116 -64 q 149 -68 133 -66 q 178 -69 164 -69 q 308 0 279 -69 l 170 0 l 0 678 l 278 678 l 372 191 l 468 678 l 746 678 l 553 -68 q 170 -271 481 -271 m 253 746 l 321 949 l 612 949 l 497 746 l 253 746 z "},"þ":{"ha":834,"x_min":68,"x_max":766,"o":"m 339 949 l 339 597 q 509 678 372 678 q 766 373 766 678 l 766 305 q 502 0 766 0 q 339 81 372 0 l 339 -271 l 68 -271 l 68 949 l 339 949 m 339 251 q 434 203 372 203 q 495 271 495 203 l 495 400 q 434 468 495 468 q 339 420 372 468 l 339 251 z "},"ÿ":{"ha":746,"x_min":0,"x_max":746,"o":"m 170 -271 q 136 -270 153 -271 q 102 -264 119 -268 l 116 -64 q 149 -68 133 -66 q 178 -69 164 -69 q 308 0 279 -69 l 170 0 l 0 678 l 278 678 l 372 191 l 468 678 l 746 678 l 553 -68 q 170 -271 481 -271 m 307 949 l 307 746 l 35 746 l 35 949 l 307 949 m 713 949 l 713 746 l 442 746 l 442 949 l 713 949 z "},"Č":{"ha":881,"x_min":68,"x_max":813,"o":"m 441 -14 q 68 359 68 -14 l 68 583 q 441 963 68 963 q 812 690 794 963 l 543 665 q 441 760 543 760 q 339 583 339 760 l 339 359 q 441 190 339 190 q 543 278 543 190 l 813 258 q 441 -14 796 -14 m 312 1017 l 203 1221 l 393 1221 l 441 1146 l 488 1221 l 678 1221 l 570 1017 l 312 1017 z "},"č":{"ha":813,"x_min":68,"x_max":745,"o":"m 448 -14 q 68 305 71 -14 l 68 373 q 448 692 71 692 q 745 576 694 692 l 576 427 q 448 488 543 488 q 339 373 342 488 l 339 312 q 448 190 339 190 q 576 251 543 190 l 745 102 q 448 -14 694 -14 m 278 746 l 170 949 l 359 949 l 407 875 l 454 949 l 644 949 l 536 746 l 278 746 z "},"Ď":{"ha":882,"x_min":68,"x_max":814,"o":"m 407 746 l 339 746 l 339 203 l 407 203 q 543 373 543 203 l 543 570 q 407 746 543 746 m 814 570 l 814 373 q 407 0 814 0 l 68 0 l 68 949 l 407 949 q 814 570 814 949 m 312 1017 l 203 1221 l 393 1221 l 441 1146 l 488 1221 l 678 1221 l 570 1017 l 312 1017 z "},"ď":{"ha":1356,"x_min":68,"x_max":1241,"o":"m 1241 949 l 1241 746 q 970 576 1241 576 l 970 678 q 1038 746 1038 678 l 970 746 l 970 949 l 1241 949 m 495 0 l 495 81 q 326 0 461 0 q 68 305 68 0 l 68 373 q 332 678 68 678 q 495 597 461 678 l 495 949 l 766 949 l 766 0 l 495 0 m 495 427 q 400 475 462 475 q 339 407 339 475 l 339 278 q 400 210 339 210 q 495 258 462 210 l 495 427 z "},"Ě":{"ha":814,"x_min":68,"x_max":746,"o":"m 746 949 l 746 746 l 339 746 l 339 576 l 712 576 l 712 373 l 339 373 l 339 203 l 746 203 l 746 0 l 68 0 l 68 949 l 746 949 m 278 1017 l 170 1221 l 359 1221 l 407 1146 l 454 1221 l 644 1221 l 536 1017 l 278 1017 z "},"ě":{"ha":814,"x_min":68,"x_max":746,"o":"m 746 264 l 339 264 q 427 190 345 190 q 556 251 522 190 l 725 102 q 427 -14 674 -14 q 68 292 71 -14 l 68 387 q 414 692 71 692 q 746 400 746 692 l 746 264 m 475 407 q 414 488 471 488 q 339 407 344 488 l 475 407 m 278 746 l 170 949 l 359 949 l 407 875 l 454 949 l 644 949 l 536 746 l 278 746 z "},"ı":{"ha":543,"x_min":136,"x_max":407,"o":"m 136 0 l 136 678 l 407 678 l 407 0 l 136 0 z "},"Ň":{"ha":949,"x_min":68,"x_max":882,"o":"m 68 0 l 68 949 l 407 949 l 610 475 l 610 949 l 882 949 l 882 0 l 543 0 l 339 475 l 339 0 l 68 0 m 346 1017 l 237 1221 l 427 1221 l 475 1146 l 522 1221 l 712 1221 l 604 1017 l 346 1017 z "},"ň":{"ha":834,"x_min":68,"x_max":766,"o":"m 339 0 l 68 0 l 68 678 l 339 678 l 339 597 q 502 678 372 678 q 766 373 766 678 l 766 0 l 495 0 l 495 407 q 434 475 495 475 q 339 427 372 475 l 339 0 m 288 746 l 180 949 l 370 949 l 417 875 l 465 949 l 654 949 l 546 746 l 288 746 z "},"Œ":{"ha":1188,"x_min":68,"x_max":1119,"o":"m 1119 949 l 1119 746 l 814 746 l 814 576 l 1085 576 l 1085 373 l 814 373 l 814 203 l 1119 203 l 1119 0 l 543 0 l 543 69 q 373 -14 492 -14 q 68 359 68 -14 l 68 583 q 373 963 68 963 q 543 878 492 963 l 543 949 l 1119 949 m 441 760 q 339 583 339 760 l 339 359 q 441 190 339 190 q 543 283 537 190 l 543 660 q 441 760 538 760 z "},"œ":{"ha":1289,"x_min":68,"x_max":1221,"o":"m 902 -14 q 663 90 734 -14 q 427 -14 591 -14 q 68 305 71 -14 l 68 373 q 427 692 71 692 q 661 590 589 692 q 888 692 729 692 q 1221 400 1221 692 l 1221 264 l 814 264 q 902 190 820 190 q 1031 251 997 190 l 1200 102 q 902 -14 1149 -14 m 427 190 q 515 312 515 190 l 515 366 q 427 488 515 488 q 339 366 339 488 l 339 312 q 427 190 339 190 m 949 407 q 888 488 946 488 q 814 407 819 488 l 949 407 z "},"Ř":{"ha":882,"x_min":68,"x_max":882,"o":"m 407 949 q 814 644 814 949 q 677 400 814 474 l 882 0 l 576 0 l 407 339 l 339 339 l 339 0 l 68 0 l 68 949 l 407 949 m 407 536 q 543 644 543 536 q 407 746 543 746 l 339 746 l 339 536 l 407 536 m 346 1017 l 237 1221 l 427 1221 l 475 1146 l 522 1221 l 712 1221 l 604 1017 l 346 1017 z "},"ř":{"ha":678,"x_min":68,"x_max":642,"o":"m 515 678 q 642 644 584 678 l 603 454 q 515 475 568 475 q 339 407 407 475 l 339 0 l 68 0 l 68 678 l 339 678 l 339 576 q 515 678 407 678 m 227 746 l 118 949 l 308 949 l 355 875 l 403 949 l 593 949 l 484 746 l 227 746 z "},"Š":{"ha":880,"x_min":68,"x_max":812,"o":"m 73 685 q 444 961 73 953 q 804 661 793 951 l 534 644 q 444 755 534 754 q 345 685 345 751 q 578 548 345 608 q 812 264 812 488 q 437 -12 812 -4 q 68 292 77 -2 l 338 305 q 429 193 338 193 l 437 193 q 541 264 541 197 q 307 399 541 336 q 73 685 73 460 m 311 1017 l 203 1221 l 393 1221 l 440 1146 l 488 1221 l 677 1221 l 569 1017 l 311 1017 z "},"š":{"ha":742,"x_min":68,"x_max":674,"o":"m 334 183 q 402 210 402 183 q 328 244 402 237 q 71 468 71 252 q 403 692 75 692 q 656 628 546 692 l 581 454 q 403 495 533 495 q 345 468 345 495 l 344 468 q 410 434 344 441 q 674 210 674 427 l 673 210 q 334 -14 669 -14 q 68 47 146 -14 l 130 234 q 334 183 188 183 m 242 746 l 134 949 l 323 949 l 371 875 l 418 949 l 608 949 l 500 746 l 242 746 z "},"Ť":{"ha":814,"x_min":68,"x_max":746,"o":"m 746 949 l 746 746 l 543 746 l 543 0 l 271 0 l 271 746 l 68 746 l 68 949 l 746 949 m 278 1017 l 170 1221 l 359 1221 l 407 1146 l 454 1221 l 644 1221 l 536 1017 l 278 1017 z "},"ť":{"ha":1187,"x_min":68,"x_max":1017,"o":"m 136 882 l 407 882 l 407 678 l 509 678 l 509 475 l 407 475 l 407 271 q 475 203 407 203 l 509 203 l 509 0 l 407 0 q 136 203 136 0 l 136 475 l 68 475 l 68 678 l 136 678 l 136 882 m 1017 949 l 1017 746 q 746 576 1017 576 l 746 678 q 814 746 814 678 l 746 746 l 746 949 l 1017 949 z "},"Ů":{"ha":882,"x_min":68,"x_max":814,"o":"m 339 949 l 339 359 q 441 190 339 190 q 543 359 543 190 l 543 949 l 814 949 l 814 359 q 441 -14 814 -14 q 68 359 68 -14 l 68 949 l 339 949 m 576 1153 q 536 1057 576 1097 q 441 1017 497 1017 q 345 1057 384 1017 q 305 1153 305 1096 q 345 1249 305 1209 q 441 1289 385 1289 q 536 1249 496 1289 q 576 1153 576 1208 m 441 1187 q 417 1177 427 1187 q 407 1153 407 1167 q 417 1129 407 1139 q 441 1119 427 1119 q 465 1129 455 1119 q 475 1153 475 1139 q 465 1177 475 1167 q 441 1187 455 1187 z "},"ů":{"ha":834,"x_min":68,"x_max":766,"o":"m 495 678 l 766 678 l 766 0 l 495 0 l 495 81 q 332 0 461 0 q 68 305 68 0 l 68 678 l 339 678 l 339 271 q 400 203 339 203 q 495 251 462 203 l 495 678 m 553 882 q 513 785 553 825 q 417 746 473 746 q 321 785 360 746 q 281 882 281 825 q 321 977 281 938 q 417 1017 361 1017 q 513 977 473 1017 q 553 882 553 937 m 417 916 q 393 906 403 916 q 383 882 383 896 q 393 858 383 867 q 417 848 403 848 q 441 858 431 848 q 451 882 451 867 q 441 906 451 896 q 417 916 431 916 z "},"Ÿ":{"ha":814,"x_min":0,"x_max":814,"o":"m 543 0 l 271 0 l 271 407 l 0 949 l 271 949 l 407 665 l 543 949 l 814 949 l 543 407 l 543 0 m 339 1221 l 339 1017 l 68 1017 l 68 1221 l 339 1221 m 746 1221 l 746 1017 l 475 1017 l 475 1221 l 746 1221 z "},"Ž":{"ha":814,"x_min":68,"x_max":746,"o":"m 732 949 l 732 746 l 366 203 l 746 203 l 746 0 l 68 0 l 68 203 l 434 746 l 88 746 l 88 949 l 732 949 m 278 1017 l 170 1221 l 359 1221 l 407 1146 l 454 1221 l 644 1221 l 536 1017 l 278 1017 z "},"ž":{"ha":746,"x_min":68,"x_max":678,"o":"m 665 678 l 665 475 l 387 203 l 678 203 l 678 0 l 68 0 l 68 203 l 353 475 l 88 475 l 88 678 l 665 678 m 244 746 l 136 949 l 326 949 l 373 875 l 420 949 l 610 949 l 502 746 l 244 746 z "},"ƒ":{"ha":576,"x_min":68,"x_max":509,"o":"m 136 475 l 68 475 l 68 678 l 136 678 l 136 746 q 407 949 136 949 l 509 949 l 509 746 l 475 746 q 407 678 407 746 l 509 678 l 509 475 l 407 475 l 407 -271 l 136 -271 l 136 475 z "},"ˆ":{"ha":610,"x_min":68,"x_max":543,"o":"m 434 949 l 543 746 l 353 746 l 305 821 l 258 746 l 68 746 l 176 949 l 434 949 z "},"ˇ":{"ha":610,"x_min":68,"x_max":543,"o":"m 176 746 l 68 949 l 258 949 l 305 875 l 353 949 l 543 949 l 434 746 l 176 746 z "},"˘":{"ha":610,"x_min":54,"x_max":556,"o":"m 54 983 l 203 983 q 305 895 203 895 q 407 983 407 895 l 556 983 q 305 746 556 746 q 54 983 54 746 z "},"˙":{"ha":543,"x_min":136,"x_max":407,"o":"m 407 949 l 407 746 l 136 746 l 136 949 l 407 949 z "},"˚":{"ha":407,"x_min":68,"x_max":339,"o":"m 339 882 q 299 785 339 825 q 203 746 260 746 q 107 785 146 746 q 68 882 68 825 q 107 977 68 938 q 203 1017 147 1017 q 299 977 259 1017 q 339 882 339 937 m 203 916 q 179 906 189 916 q 170 882 170 896 q 179 858 170 867 q 203 848 189 848 q 228 858 218 848 q 237 882 237 867 q 228 906 237 896 q 203 916 218 916 z "},"˛":{"ha":631,"x_min":136,"x_max":495,"o":"m 495 -68 l 427 -271 l 136 -271 l 251 -68 l 495 -68 z "},"˜":{"ha":583,"x_min":68,"x_max":515,"o":"m 68 882 q 186 949 113 949 q 295 922 248 949 q 399 896 342 896 q 515 949 464 896 l 515 814 q 397 747 471 747 q 288 774 336 747 q 184 801 241 801 q 68 747 119 801 l 68 882 z "},"˝":{"ha":1038,"x_min":136,"x_max":902,"o":"m 543 746 l 610 949 l 902 949 l 787 746 l 543 746 m 136 746 l 203 949 l 495 949 l 380 746 l 136 746 z "},"–":{"ha":543,"x_min":68,"x_max":475,"o":"m 475 576 l 475 373 l 68 373 l 68 576 l 475 576 z "},"—":{"ha":678,"x_min":68,"x_max":610,"o":"m 610 576 l 610 373 l 68 373 l 68 576 l 610 576 z "},"‘":{"ha":543,"x_min":136,"x_max":407,"o":"m 136 576 l 136 780 q 407 949 136 949 l 407 848 q 339 780 339 848 l 407 780 l 407 576 l 136 576 z "},"’":{"ha":543,"x_min":136,"x_max":407,"o":"m 407 949 l 407 746 q 136 576 407 576 l 136 678 q 203 746 203 678 l 136 746 l 136 949 l 407 949 z "},"‚":{"ha":543,"x_min":136,"x_max":407,"o":"m 407 203 l 407 0 q 136 -170 407 -170 l 136 -68 q 203 0 203 -68 l 136 0 l 136 203 l 407 203 z "},"“":{"ha":949,"x_min":136,"x_max":814,"o":"m 543 576 l 543 780 q 814 949 543 949 l 814 848 q 746 780 746 848 l 814 780 l 814 576 l 543 576 m 136 576 l 136 780 q 407 949 136 949 l 407 848 q 339 780 339 848 l 407 780 l 407 576 l 136 576 z "},"”":{"ha":949,"x_min":136,"x_max":814,"o":"m 814 949 l 814 746 q 543 576 814 576 l 543 678 q 610 746 610 678 l 543 746 l 543 949 l 814 949 m 407 949 l 407 746 q 136 576 407 576 l 136 678 q 203 746 203 678 l 136 746 l 136 949 l 407 949 z "},"„":{"ha":949,"x_min":136,"x_max":814,"o":"m 814 203 l 814 0 q 543 -170 814 -170 l 543 -68 q 610 0 610 -68 l 543 0 l 543 203 l 814 203 m 407 203 l 407 0 q 136 -170 407 -170 l 136 -68 q 203 0 203 -68 l 136 0 l 136 203 l 407 203 z "},"†":{"ha":882,"x_min":68,"x_max":814,"o":"m 305 1085 l 576 1085 l 576 814 l 814 814 l 814 610 l 576 610 l 576 -136 l 305 -136 l 305 610 l 68 610 l 68 814 l 305 814 l 305 1085 z "},"‡":{"ha":882,"x_min":68,"x_max":814,"o":"m 576 -136 l 305 -136 l 305 136 l 68 136 l 68 339 l 305 339 l 305 610 l 68 610 l 68 814 l 305 814 l 305 1085 l 576 1085 l 576 814 l 814 814 l 814 610 l 576 610 l 576 339 l 814 339 l 814 136 l 576 136 l 576 -136 z "},"•":{"ha":610,"x_min":136,"x_max":475,"o":"m 475 610 l 475 339 l 136 339 l 136 610 l 475 610 z "},"…":{"ha":1628,"x_min":136,"x_max":1492,"o":"m 1492 203 l 1492 0 l 1221 0 l 1221 203 l 1492 203 m 949 203 l 949 0 l 678 0 l 678 203 l 949 203 m 407 203 l 407 0 l 136 0 l 136 203 l 407 203 z "},"‰":{"ha":1831,"x_min":68,"x_max":1763,"o":"m 983 502 q 1221 278 1221 502 l 1221 217 q 983 0 1217 0 q 746 224 746 0 l 746 278 q 983 502 746 502 m 305 949 q 543 732 539 949 l 543 671 q 305 448 543 448 q 68 671 68 448 l 68 732 q 305 949 71 949 m 305 0 l 753 949 l 983 949 l 536 0 l 305 0 m 305 604 q 353 665 349 604 l 353 726 q 305 793 353 793 q 258 732 260 793 l 258 671 q 305 604 258 604 m 983 156 q 1031 218 1029 156 l 1031 278 q 983 346 1031 346 q 936 285 938 346 l 936 218 q 983 156 938 156 m 1526 502 q 1763 278 1763 502 l 1763 217 q 1526 0 1760 0 q 1289 224 1289 0 l 1289 278 q 1526 502 1289 502 m 1526 156 q 1573 218 1571 156 l 1573 278 q 1526 346 1573 346 q 1478 285 1480 346 l 1478 218 q 1526 156 1480 156 z "},"‹":{"ha":610,"x_min":68,"x_max":543,"o":"m 68 475 l 271 746 l 543 746 l 373 475 l 543 203 l 271 203 l 68 475 z "},"›":{"ha":610,"x_min":68,"x_max":543,"o":"m 543 475 l 339 203 l 68 203 l 237 475 l 68 746 l 339 746 l 543 475 z "},"€":{"ha":949,"x_min":68,"x_max":881,"o":"m 407 543 l 407 407 l 531 407 l 511 298 l 410 298 q 509 190 416 190 q 610 278 610 190 l 881 258 q 509 -14 864 -14 q 138 298 161 -14 l 68 298 l 68 407 l 136 407 l 136 543 l 68 543 l 68 651 l 138 651 q 509 963 163 963 q 880 690 862 963 l 610 665 q 509 760 610 760 q 410 651 418 760 l 576 651 l 556 543 l 407 543 z "},"™":{"ha":882,"x_min":68,"x_max":814,"o":"m 373 949 l 373 861 l 258 861 l 258 543 l 170 543 l 170 861 l 68 861 l 68 949 l 373 949 m 570 949 l 624 671 l 678 949 l 814 949 l 814 543 l 726 543 l 726 814 l 671 543 l 576 543 l 522 814 l 522 543 l 434 543 l 434 949 l 570 949 z "}}}
